<svg width="70" height="97" viewBox="0 0 70 97" fill="none" xmlns="http://www.w3.org/2000/svg">
<circle cx="35" cy="46" r="35" fill="white"/>
<path fill-rule="evenodd" clip-rule="evenodd" d="M35.0521 13.253C17.0422 13.253 2.48291 27.9196 2.48291 46.0642C2.48291 60.5681 11.8115 72.8454 24.7528 77.1907C26.3708 77.5174 26.9635 76.4847 26.9635 75.6161C26.9635 74.8554 26.9101 72.2481 26.9101 69.5314C17.8502 71.4874 15.9635 65.6201 15.9635 65.6201C14.5075 61.8175 12.3502 60.8401 12.3502 60.8401C9.38488 58.8301 12.5662 58.8301 12.5662 58.8301C15.8555 59.0475 17.5815 62.1981 17.5815 62.1981C20.4928 67.1954 25.1842 65.7834 27.0715 64.9141C27.3408 62.7954 28.2041 61.3288 29.1208 60.5141C21.8948 59.7535 14.2922 56.9288 14.2922 44.3255C14.2922 40.7402 15.5855 37.8069 17.6348 35.5256C17.3115 34.7109 16.1789 31.3422 17.9588 26.8336C17.9588 26.8336 20.7088 25.9643 26.9095 30.2016C29.5642 29.4834 32.302 29.118 35.0521 29.1149C37.8021 29.1149 40.6054 29.4956 43.1941 30.2016C49.3954 25.9643 52.1454 26.8336 52.1454 26.8336C53.9254 31.3422 52.792 34.7109 52.4687 35.5256C54.572 37.8069 55.812 40.7402 55.812 44.3255C55.812 56.9288 48.2094 59.6988 40.9294 60.5141C42.1161 61.5461 43.1401 63.5014 43.1401 66.5981C43.1401 70.9981 43.0867 74.5294 43.0867 75.6154C43.0867 76.4847 43.6801 77.5174 45.2974 77.1914C58.2387 72.8447 67.5673 60.5681 67.5673 46.0642C67.6206 27.9196 53.008 13.253 35.0521 13.253Z" fill="#24292F"/>
</svg>
